<svg xmlns="http://www.w3.org/2000/svg" viewBox="0 0 920 430"
     role="img" aria-label="Entity-relationship diagram of the seed schema"
     font-family="ui-monospace, Menlo, Consolas, monospace">
  <title>seed schema — tables, columns, types, and foreign-key relationships</title>
  <rect x="0" y="0" width="920" height="430" fill="#0f172a"/>
  <text x="20" y="418" fill="#94a3b8" font-size="11">
    PK = primary key (already indexed) · FK → its referenced PK (unindexed — index these via Setup SQL) · arrow points to the PK
  </text>
  <polyline points="20,266 8,266 8,72 20,72" fill="none" stroke="#64748b" stroke-width="1.5"/>
  <circle cx="20" cy="266" r="3" fill="#64748b"/>
  <polygon points="20,72 14,68 14,76" fill="#64748b"/>
  <polyline points="330,316 308,316 308,242 290,242" fill="none" stroke="#64748b" stroke-width="1.5"/>
  <circle cx="330" cy="316" r="3" fill="#64748b"/>
  <polygon points="290,242 296,238 296,246" fill="#64748b"/>
  <polyline points="600,340 608,340 608,302 630,302" fill="none" stroke="#64748b" stroke-width="1.5"/>
  <circle cx="600" cy="340" r="3" fill="#64748b"/>
  <polygon points="630,302 624,298 624,306" fill="#64748b"/>
  <polyline points="900,326 918,326 918,72 900,72" fill="none" stroke="#64748b" stroke-width="1.5"/>
  <circle cx="900" cy="326" r="3" fill="#64748b"/>
  <polygon points="900,72 906,68 906,76" fill="#64748b"/>
  <g>
    <rect x="20" y="30" width="270" height="78" rx="5"
          fill="#1e293b" stroke="#334155" stroke-width="1"/>
    <rect x="20" y="30" width="270" height="30" rx="5"
          fill="#0f172a" stroke="#334155" stroke-width="1"/>
    <rect x="20" y="55" width="270" height="5" fill="#0f172a"/>
    <text x="32" y="50" fill="#7dd3fc"
          font-family="ui-monospace, Menlo, Consolas, monospace"
          font-size="14" font-weight="700">category</text>
    <text x="32" y="76" fill="#e2e8f0" font-size="12.5"
          font-family="ui-monospace, Menlo, Consolas, monospace">category_id</text>
    <text x="170" y="76" fill="#94a3b8" font-size="11.5"
          font-family="ui-monospace, Menlo, Consolas, monospace">integer</text>
    <text x="280" y="76" text-anchor="end" font-size="10" font-weight="700"
              fill="#7dd3fc"
              font-family="ui-monospace, Menlo, Consolas, monospace">PK</text>
    <line x1="20" y1="84" x2="290" y2="84" stroke="#334155" stroke-width="0.5"/>
    <text x="32" y="100" fill="#e2e8f0" font-size="12.5"
          font-family="ui-monospace, Menlo, Consolas, monospace">category_name</text>
    <text x="170" y="100" fill="#94a3b8" font-size="11.5"
          font-family="ui-monospace, Menlo, Consolas, monospace">text</text>
    
  </g>
  <g>
    <rect x="20" y="200" width="270" height="174" rx="5"
          fill="#1e293b" stroke="#334155" stroke-width="1"/>
    <rect x="20" y="200" width="270" height="30" rx="5"
          fill="#0f172a" stroke="#334155" stroke-width="1"/>
    <rect x="20" y="225" width="270" height="5" fill="#0f172a"/>
    <text x="32" y="220" fill="#7dd3fc"
          font-family="ui-monospace, Menlo, Consolas, monospace"
          font-size="14" font-weight="700">product</text>
    <text x="32" y="246" fill="#e2e8f0" font-size="12.5"
          font-family="ui-monospace, Menlo, Consolas, monospace">product_id</text>
    <text x="170" y="246" fill="#94a3b8" font-size="11.5"
          font-family="ui-monospace, Menlo, Consolas, monospace">integer</text>
    <text x="280" y="246" text-anchor="end" font-size="10" font-weight="700"
              fill="#7dd3fc"
              font-family="ui-monospace, Menlo, Consolas, monospace">PK</text>
    <line x1="20" y1="254" x2="290" y2="254" stroke="#334155" stroke-width="0.5"/>
    <text x="32" y="270" fill="#e2e8f0" font-size="12.5"
          font-family="ui-monospace, Menlo, Consolas, monospace">category_id</text>
    <text x="170" y="270" fill="#94a3b8" font-size="11.5"
          font-family="ui-monospace, Menlo, Consolas, monospace">integer</text>
    <text x="280" y="270" text-anchor="end" font-size="10" font-weight="700"
              fill="#94a3b8"
              font-family="ui-monospace, Menlo, Consolas, monospace">FK</text>
    <line x1="20" y1="278" x2="290" y2="278" stroke="#334155" stroke-width="0.5"/>
    <text x="32" y="294" fill="#e2e8f0" font-size="12.5"
          font-family="ui-monospace, Menlo, Consolas, monospace">name</text>
    <text x="170" y="294" fill="#94a3b8" font-size="11.5"
          font-family="ui-monospace, Menlo, Consolas, monospace">text</text>
    
    <line x1="20" y1="302" x2="290" y2="302" stroke="#334155" stroke-width="0.5"/>
    <text x="32" y="318" fill="#e2e8f0" font-size="12.5"
          font-family="ui-monospace, Menlo, Consolas, monospace">description</text>
    <text x="170" y="318" fill="#94a3b8" font-size="11.5"
          font-family="ui-monospace, Menlo, Consolas, monospace">text</text>
    
    <line x1="20" y1="326" x2="290" y2="326" stroke="#334155" stroke-width="0.5"/>
    <text x="32" y="342" fill="#e2e8f0" font-size="12.5"
          font-family="ui-monospace, Menlo, Consolas, monospace">price</text>
    <text x="170" y="342" fill="#94a3b8" font-size="11.5"
          font-family="ui-monospace, Menlo, Consolas, monospace">numeric(12,2)</text>
    
    <line x1="20" y1="350" x2="290" y2="350" stroke="#334155" stroke-width="0.5"/>
    <text x="32" y="366" fill="#e2e8f0" font-size="12.5"
          font-family="ui-monospace, Menlo, Consolas, monospace">stock_quantity</text>
    <text x="170" y="366" fill="#94a3b8" font-size="11.5"
          font-family="ui-monospace, Menlo, Consolas, monospace">integer</text>
    
  </g>
  <g>
    <rect x="330" y="250" width="270" height="150" rx="5"
          fill="#1e293b" stroke="#334155" stroke-width="1"/>
    <rect x="330" y="250" width="270" height="30" rx="5"
          fill="#0f172a" stroke="#334155" stroke-width="1"/>
    <rect x="330" y="275" width="270" height="5" fill="#0f172a"/>
    <text x="342" y="270" fill="#7dd3fc"
          font-family="ui-monospace, Menlo, Consolas, monospace"
          font-size="14" font-weight="700">order_details</text>
    <text x="342" y="296" fill="#e2e8f0" font-size="12.5"
          font-family="ui-monospace, Menlo, Consolas, monospace">order_details_id</text>
    <text x="480" y="296" fill="#94a3b8" font-size="11.5"
          font-family="ui-monospace, Menlo, Consolas, monospace">bigint</text>
    <text x="590" y="296" text-anchor="end" font-size="10" font-weight="700"
              fill="#7dd3fc"
              font-family="ui-monospace, Menlo, Consolas, monospace">PK</text>
    <line x1="330" y1="304" x2="600" y2="304" stroke="#334155" stroke-width="0.5"/>
    <text x="342" y="320" fill="#e2e8f0" font-size="12.5"
          font-family="ui-monospace, Menlo, Consolas, monospace">product_id</text>
    <text x="480" y="320" fill="#94a3b8" font-size="11.5"
          font-family="ui-monospace, Menlo, Consolas, monospace">integer</text>
    <text x="590" y="320" text-anchor="end" font-size="10" font-weight="700"
              fill="#94a3b8"
              font-family="ui-monospace, Menlo, Consolas, monospace">FK</text>
    <line x1="330" y1="328" x2="600" y2="328" stroke="#334155" stroke-width="0.5"/>
    <text x="342" y="344" fill="#e2e8f0" font-size="12.5"
          font-family="ui-monospace, Menlo, Consolas, monospace">order_id</text>
    <text x="480" y="344" fill="#94a3b8" font-size="11.5"
          font-family="ui-monospace, Menlo, Consolas, monospace">bigint</text>
    <text x="590" y="344" text-anchor="end" font-size="10" font-weight="700"
              fill="#94a3b8"
              font-family="ui-monospace, Menlo, Consolas, monospace">FK</text>
    <line x1="330" y1="352" x2="600" y2="352" stroke="#334155" stroke-width="0.5"/>
    <text x="342" y="368" fill="#e2e8f0" font-size="12.5"
          font-family="ui-monospace, Menlo, Consolas, monospace">quantity</text>
    <text x="480" y="368" fill="#94a3b8" font-size="11.5"
          font-family="ui-monospace, Menlo, Consolas, monospace">integer</text>
    
    <line x1="330" y1="376" x2="600" y2="376" stroke="#334155" stroke-width="0.5"/>
    <text x="342" y="392" fill="#e2e8f0" font-size="12.5"
          font-family="ui-monospace, Menlo, Consolas, monospace">unit_price</text>
    <text x="480" y="392" fill="#94a3b8" font-size="11.5"
          font-family="ui-monospace, Menlo, Consolas, monospace">numeric(12,2)</text>
    
  </g>
  <g>
    <rect x="630" y="30" width="270" height="150" rx="5"
          fill="#1e293b" stroke="#334155" stroke-width="1"/>
    <rect x="630" y="30" width="270" height="30" rx="5"
          fill="#0f172a" stroke="#334155" stroke-width="1"/>
    <rect x="630" y="55" width="270" height="5" fill="#0f172a"/>
    <text x="642" y="50" fill="#7dd3fc"
          font-family="ui-monospace, Menlo, Consolas, monospace"
          font-size="14" font-weight="700">customer</text>
    <text x="642" y="76" fill="#e2e8f0" font-size="12.5"
          font-family="ui-monospace, Menlo, Consolas, monospace">customer_id</text>
    <text x="780" y="76" fill="#94a3b8" font-size="11.5"
          font-family="ui-monospace, Menlo, Consolas, monospace">integer</text>
    <text x="890" y="76" text-anchor="end" font-size="10" font-weight="700"
              fill="#7dd3fc"
              font-family="ui-monospace, Menlo, Consolas, monospace">PK</text>
    <line x1="630" y1="84" x2="900" y2="84" stroke="#334155" stroke-width="0.5"/>
    <text x="642" y="100" fill="#e2e8f0" font-size="12.5"
          font-family="ui-monospace, Menlo, Consolas, monospace">first_name</text>
    <text x="780" y="100" fill="#94a3b8" font-size="11.5"
          font-family="ui-monospace, Menlo, Consolas, monospace">text</text>
    
    <line x1="630" y1="108" x2="900" y2="108" stroke="#334155" stroke-width="0.5"/>
    <text x="642" y="124" fill="#e2e8f0" font-size="12.5"
          font-family="ui-monospace, Menlo, Consolas, monospace">last_name</text>
    <text x="780" y="124" fill="#94a3b8" font-size="11.5"
          font-family="ui-monospace, Menlo, Consolas, monospace">text</text>
    
    <line x1="630" y1="132" x2="900" y2="132" stroke="#334155" stroke-width="0.5"/>
    <text x="642" y="148" fill="#e2e8f0" font-size="12.5"
          font-family="ui-monospace, Menlo, Consolas, monospace">email</text>
    <text x="780" y="148" fill="#94a3b8" font-size="11.5"
          font-family="ui-monospace, Menlo, Consolas, monospace">text</text>
    
    <line x1="630" y1="156" x2="900" y2="156" stroke="#334155" stroke-width="0.5"/>
    <text x="642" y="172" fill="#e2e8f0" font-size="12.5"
          font-family="ui-monospace, Menlo, Consolas, monospace">password_hash</text>
    <text x="780" y="172" fill="#94a3b8" font-size="11.5"
          font-family="ui-monospace, Menlo, Consolas, monospace">text</text>
    
  </g>
  <g>
    <rect x="630" y="260" width="270" height="126" rx="5"
          fill="#1e293b" stroke="#334155" stroke-width="1"/>
    <rect x="630" y="260" width="270" height="30" rx="5"
          fill="#0f172a" stroke="#334155" stroke-width="1"/>
    <rect x="630" y="285" width="270" height="5" fill="#0f172a"/>
    <text x="642" y="280" fill="#7dd3fc"
          font-family="ui-monospace, Menlo, Consolas, monospace"
          font-size="14" font-weight="700">orders</text>
    <text x="642" y="306" fill="#e2e8f0" font-size="12.5"
          font-family="ui-monospace, Menlo, Consolas, monospace">order_id</text>
    <text x="780" y="306" fill="#94a3b8" font-size="11.5"
          font-family="ui-monospace, Menlo, Consolas, monospace">bigint</text>
    <text x="890" y="306" text-anchor="end" font-size="10" font-weight="700"
              fill="#7dd3fc"
              font-family="ui-monospace, Menlo, Consolas, monospace">PK</text>
    <line x1="630" y1="314" x2="900" y2="314" stroke="#334155" stroke-width="0.5"/>
    <text x="642" y="330" fill="#e2e8f0" font-size="12.5"
          font-family="ui-monospace, Menlo, Consolas, monospace">customer_id</text>
    <text x="780" y="330" fill="#94a3b8" font-size="11.5"
          font-family="ui-monospace, Menlo, Consolas, monospace">integer</text>
    <text x="890" y="330" text-anchor="end" font-size="10" font-weight="700"
              fill="#94a3b8"
              font-family="ui-monospace, Menlo, Consolas, monospace">FK</text>
    <line x1="630" y1="338" x2="900" y2="338" stroke="#334155" stroke-width="0.5"/>
    <text x="642" y="354" fill="#e2e8f0" font-size="12.5"
          font-family="ui-monospace, Menlo, Consolas, monospace">order_date</text>
    <text x="780" y="354" fill="#94a3b8" font-size="11.5"
          font-family="ui-monospace, Menlo, Consolas, monospace">timestamptz</text>
    
    <line x1="630" y1="362" x2="900" y2="362" stroke="#334155" stroke-width="0.5"/>
    <text x="642" y="378" fill="#e2e8f0" font-size="12.5"
          font-family="ui-monospace, Menlo, Consolas, monospace">total_amount</text>
    <text x="780" y="378" fill="#94a3b8" font-size="11.5"
          font-family="ui-monospace, Menlo, Consolas, monospace">numeric(14,2)</text>
    
  </g>
</svg>
